# xmcd
#
# Track frame offsets:
#         150
#       20367
#       38495
#       52785
#       73322
#       89867
#      106062
#      123997
#
# Disc length:   2039 seconds
#
# Revision:        6
# Processed by: cddbd v1.5.2PL0 Copyright (c) Steve Scherf et al.
# Submitted via: libcddb 1.3.2
#
DISCID=6207f508
DTITLE=森田童子 - 狼少年 wolf boy
DYEAR=1983
DGENRE=blues
TTITLE0=愛情練習（ロシアン・ルーレット）
TTITLE1=ぼくを見つけてくれないかなァ
TTITLE2=ぼくは流星になる
TTITLE3=151680時間の夢
TTITLE4=球根栽培の唄（ときわ荘にて録音）
TTITLE5=ぼくのせいですか
TTITLE6=憂鬱デス
TTITLE7=狼少年・ウルフボーイ
EXTD=
EXTT0=
EXTT1=
EXTT2=
EXTT3=
EXTT4=
EXTT5=
EXTT6=
EXTT7=
PLAYORDER=
